<svg xmlns="http://www.w3.org/2000/svg" version="1.1" viewBox="-5.0 -10.0 110.0 135.0">
 <path d="m90.227 40.262c-1.8477 8.1562-6.0898 15.574-12.184 21.305 3.4297 2.75 7.0938 5.1953 10.949 7.3125l-3.0508 5.4844c-4.457-2.4492-8.6758-5.3086-12.602-8.5391-3.9141 3.2305-8.125 6.0898-12.574 8.5391l-3.0469-5.4805v-0.003906c3.8555-2.125 7.5234-4.5781 10.953-7.3359-4.0156-3.9648-7.3047-8.6055-9.7188-13.707l5.707-2.6016-0.003906-0.003906c2.1562 4.5352 5.1016 8.6445 8.7031 12.141 4.9844-4.6406 8.6055-10.559 10.469-17.109h-33.992v-6.2734h20.383v-6.2695h6.2734v6.2734l20.383-0.003907v6.2734zm-63.914-14.855 23.188 46.379-5.6094 2.8047-6.9727-13.945h-21.211l-6.9727 13.949-5.6094-2.8086zm7.4688 28.965-7.4688-14.938-7.4688 14.941z"/>
<text x="0.0" y="117.5" font-size="5.0" font-weight="bold" font-family="Arbeit Regular, Helvetica, Arial-Unicode, Arial, Sans-serif" fill="#000000">Created by Ricons</text><text x="0.0" y="122.5" font-size="5.0" font-weight="bold" font-family="Arbeit Regular, Helvetica, Arial-Unicode, Arial, Sans-serif" fill="#000000">from Noun Project</text></svg>