<svg width="80" height="80" viewBox="0 0 80 80" fill="none" xmlns="http://www.w3.org/2000/svg">
<path d="M15.184 46V35.024H16.848L20.208 41.664L20.8 42.944H20.864V35.024H22.432V46H20.752L17.28 39.216L16.8 38.112L16.736 38.128V46H15.184ZM24.9858 46V35.024H32.1538L31.9298 36.384H26.6658V39.728H31.4338V41.056H26.6658V44.608H32.0258L32.2498 46H24.9858ZM33.3475 46L36.9315 40.224L33.6995 35.024H35.6195L38.0995 38.992H38.1315L40.5795 35.024H42.2915L39.0595 40.24L42.6435 46H40.7235L37.8915 41.504H37.8435L35.1235 46H33.3475ZM46.7493 46V36.416H43.3413V35.024H51.8212V36.416H48.4133V46H46.7493ZM54.255 46V45.008H55.295V46H54.255ZM59.4919 46.08C59.1879 46.08 58.9159 46.024 58.6759 45.912C58.4412 45.8 58.2545 45.6373 58.1159 45.424C57.9825 45.2107 57.9159 44.9467 57.9159 44.632V44.352H58.6999V44.584C58.6999 44.8773 58.7799 45.0907 58.9399 45.224C59.1052 45.3573 59.3079 45.424 59.5479 45.424C59.7825 45.424 59.9825 45.3573 60.1479 45.224C60.3132 45.0853 60.3959 44.872 60.3959 44.584V40.512H61.2359V44.632C61.2359 44.952 61.1612 45.2187 61.0119 45.432C60.8679 45.6453 60.6732 45.808 60.4279 45.92C60.1825 46.0267 59.9052 46.08 59.5959 46.08H59.4919ZM64.3688 46.08C64.0914 46.08 63.8248 46.0507 63.5688 45.992C63.3181 45.9333 63.0968 45.84 62.9048 45.712C62.7128 45.5787 62.5608 45.408 62.4488 45.2C62.3368 44.992 62.2808 44.7387 62.2808 44.44C62.2808 44.4187 62.2808 44.3947 62.2808 44.368C62.2808 44.336 62.2834 44.3067 62.2888 44.28H63.0808C63.0754 44.312 63.0728 44.3413 63.0728 44.368C63.0728 44.3947 63.0728 44.424 63.0728 44.456C63.0728 44.6747 63.1261 44.8533 63.2328 44.992C63.3394 45.1307 63.4888 45.232 63.6808 45.296C63.8728 45.36 64.0968 45.392 64.3528 45.392C64.6088 45.392 64.8301 45.3653 65.0168 45.312C65.2034 45.2533 65.3474 45.1573 65.4488 45.024C65.5554 44.8907 65.6088 44.7147 65.6088 44.496C65.6088 44.2987 65.5501 44.1413 65.4328 44.024C65.3154 43.9067 65.1608 43.8133 64.9688 43.744C64.7821 43.6693 64.5741 43.6027 64.3448 43.544C64.1208 43.4853 63.8941 43.4213 63.6648 43.352C63.4408 43.2827 63.2328 43.192 63.0408 43.08C62.8541 42.968 62.7021 42.8187 62.5848 42.632C62.4674 42.44 62.4088 42.1973 62.4088 41.904C62.4088 41.568 62.4994 41.2907 62.6808 41.072C62.8621 40.8533 63.1021 40.6933 63.4008 40.592C63.6994 40.4853 64.0274 40.432 64.3848 40.432C64.7421 40.432 65.0674 40.4853 65.3608 40.592C65.6541 40.6933 65.8861 40.856 66.0568 41.08C66.2328 41.2987 66.3208 41.5893 66.3208 41.952V42.056H65.5448V41.928C65.5448 41.7467 65.4941 41.5947 65.3928 41.472C65.2968 41.344 65.1608 41.248 64.9848 41.184C64.8141 41.12 64.6141 41.088 64.3848 41.088C64.1714 41.088 63.9794 41.1147 63.8088 41.168C63.6381 41.2213 63.5021 41.304 63.4008 41.416C63.3048 41.528 63.2568 41.6747 63.2568 41.856C63.2568 42.0427 63.3128 42.192 63.4248 42.304C63.5421 42.416 63.6941 42.5067 63.8808 42.576C64.0728 42.64 64.2834 42.6987 64.5128 42.752C64.7421 42.8053 64.9688 42.8667 65.1928 42.936C65.4221 43.0053 65.6301 43.096 65.8168 43.208C66.0088 43.32 66.1634 43.472 66.2808 43.664C66.4034 43.8507 66.4648 44.0907 66.4648 44.384C66.4648 44.7947 66.3714 45.1253 66.1848 45.376C66.0034 45.6213 65.7528 45.8 65.4328 45.912C65.1181 46.024 64.7634 46.08 64.3688 46.08Z" fill="black"/>
<mask id="path-2-inside-1_22_123" fill="white">
<path d="M0 0H80V80H0V0Z"/>
</mask>
<path d="M0 0V-2H-1V0H0ZM80 0H82V-2H80V0ZM80 80V81H82V80H80ZM0 80H-1V81H0V80ZM0 2H80V-2H0V2ZM78 0V80H82V0H78ZM80 79H0V81H80V79ZM1 80V0H-1V80H1Z" fill="black" mask="url(#path-2-inside-1_22_123)"/>
</svg>
