<svg  viewBox="0 0 80 80" fill="none" xmlns="http://www.w3.org/2000/svg">
<mask id="path-1-inside-1_22_127" fill="white">
<path d="M0 0H80V80H0V0Z"/>
</mask>
<path d="M0 0V-2H-1V0H0ZM80 0H82V-2H80V0ZM80 80V81H82V80H80ZM0 80H-1V81H0V80ZM0 2H80V-2H0V2ZM78 0V80H82V0H78ZM80 79H0V81H80V79ZM1 80V0H-1V80H1Z" fill="black" mask="url(#path-1-inside-1_22_127)"/>
<path d="M7.922 47.226C7.51133 47.254 7.13333 47.2213 6.788 47.128C6.44267 47.0347 6.16733 46.8667 5.962 46.624C5.75667 46.3813 5.654 46.0593 5.654 45.658V42.648C5.654 42.368 5.53733 42.1673 5.304 42.046C5.08 41.9153 4.83733 41.8547 4.576 41.864V40.758C4.81867 40.7673 5.05667 40.7113 5.29 40.59C5.53267 40.4593 5.654 40.2493 5.654 39.96V36.964C5.654 36.5533 5.75667 36.2313 5.962 35.998C6.17667 35.7553 6.452 35.5873 6.788 35.494C7.13333 35.3913 7.51133 35.3587 7.922 35.396V36.068C7.79133 36.068 7.63733 36.0867 7.46 36.124C7.292 36.1613 7.14267 36.236 7.012 36.348C6.89067 36.4507 6.82533 36.6047 6.816 36.81L6.718 39.806C6.69933 40.2633 6.60133 40.618 6.424 40.87C6.256 41.122 5.93867 41.248 5.472 41.248V41.374C5.93867 41.374 6.256 41.5 6.424 41.752C6.60133 42.004 6.69933 42.3587 6.718 42.816L6.816 45.798C6.82533 46.0033 6.89067 46.162 7.012 46.274C7.14267 46.386 7.292 46.4607 7.46 46.498C7.63733 46.5353 7.79133 46.554 7.922 46.554V47.226ZM13.8665 45V36.614H10.8845V35.396H18.3045V36.614H15.3225V45H13.8665ZM22.2611 45V41.43L19.0411 35.396H20.6511L23.0311 39.876H23.0871L25.4531 35.396H26.9371L23.7311 41.43V45H22.2611ZM28.2196 45V35.396H32.4616C32.9656 35.396 33.4229 35.5173 33.8336 35.76C34.2443 36.0027 34.5709 36.3293 34.8136 36.74C35.0656 37.1507 35.1916 37.6033 35.1916 38.098V38.238C35.1916 38.7327 35.0656 39.19 34.8136 39.61C34.5709 40.03 34.2443 40.366 33.8336 40.618C33.4229 40.8607 32.9656 40.982 32.4616 40.982H29.6756V45H28.2196ZM29.6756 39.792H32.1116C32.4103 39.792 32.6809 39.722 32.9236 39.582C33.1663 39.442 33.3576 39.2507 33.4976 39.008C33.6376 38.7653 33.7076 38.49 33.7076 38.182C33.7076 37.8833 33.6376 37.6127 33.4976 37.37C33.3576 37.1273 33.1663 36.936 32.9236 36.796C32.6903 36.6467 32.4196 36.572 32.1116 36.572H29.6756V39.792ZM36.7961 45V35.396H43.0681L42.8721 36.586H38.2661V39.512H42.4381V40.674H38.2661V43.782H42.9561L43.1521 45H36.7961ZM48.1727 45.14C47.6967 45.14 47.2487 45.0747 46.8287 44.944C46.418 44.8133 46.054 44.5847 45.7367 44.258C45.4193 43.9313 45.172 43.4787 44.9947 42.9C44.8173 42.312 44.7287 41.5653 44.7287 40.66V39.736C44.7287 38.8307 44.8173 38.0887 44.9947 37.51C45.1813 36.922 45.4333 36.4647 45.7507 36.138C46.0773 35.8113 46.446 35.5827 46.8567 35.452C47.2673 35.3213 47.6967 35.256 48.1447 35.256H48.1867C48.6627 35.256 49.106 35.3213 49.5167 35.452C49.9367 35.5827 50.3007 35.816 50.6087 36.152C50.926 36.4787 51.1733 36.936 51.3507 37.524C51.528 38.1027 51.6167 38.84 51.6167 39.736V40.66C51.6167 41.556 51.528 42.298 51.3507 42.886C51.1733 43.4647 50.926 43.9173 50.6087 44.244C50.3007 44.5707 49.9413 44.804 49.5307 44.944C49.12 45.0747 48.6813 45.14 48.2147 45.14H48.1727ZM48.1727 44.468C48.546 44.468 48.8913 44.4167 49.2087 44.314C49.5353 44.2113 49.82 44.0293 50.0627 43.768C50.3147 43.4973 50.5107 43.124 50.6507 42.648C50.7907 42.172 50.8607 41.5653 50.8607 40.828V39.568C50.8607 38.8307 50.7907 38.224 50.6507 37.748C50.5107 37.272 50.3147 36.9033 50.0627 36.642C49.82 36.3713 49.5353 36.1847 49.2087 36.082C48.8913 35.9793 48.546 35.928 48.1727 35.928C47.7993 35.928 47.4493 35.9793 47.1227 36.082C46.8053 36.1847 46.5207 36.3713 46.2687 36.642C46.026 36.9033 45.8347 37.272 45.6947 37.748C45.5547 38.224 45.4847 38.8307 45.4847 39.568V40.828C45.4847 41.5653 45.5547 42.172 45.6947 42.648C45.8347 43.124 46.026 43.4973 46.2687 43.768C46.5207 44.0293 46.8053 44.2113 47.1227 44.314C47.4493 44.4167 47.7993 44.468 48.1727 44.468ZM60.2352 45.042C60.0952 45.042 59.9365 45 59.7592 44.916C59.5912 44.832 59.4465 44.6593 59.3252 44.398C59.2039 44.1367 59.1432 43.7447 59.1432 43.222C59.1432 42.606 59.0732 42.1207 58.9332 41.766C58.7932 41.4113 58.6159 41.15 58.4012 40.982C58.1959 40.8047 57.9952 40.6927 57.7992 40.646C57.6032 40.5993 57.4492 40.576 57.3372 40.576H54.3832V45H53.6272V35.396H57.5332C57.9905 35.396 58.4059 35.494 58.7792 35.69C59.1619 35.886 59.4699 36.166 59.7032 36.53C59.9365 36.894 60.0532 37.3327 60.0532 37.846C60.0532 38.4247 59.8945 38.9333 59.5772 39.372C59.2692 39.8107 58.8725 40.0813 58.3872 40.184V40.254C58.6952 40.338 58.9612 40.5013 59.1852 40.744C59.4092 40.9773 59.5772 41.276 59.6892 41.64C59.8105 41.9947 59.8712 42.4007 59.8712 42.858C59.8712 43.5113 59.9179 43.9687 60.0112 44.23C60.1139 44.482 60.3052 44.6453 60.5852 44.72V44.986C60.5759 44.9953 60.5385 45.0047 60.4732 45.014C60.4172 45.0327 60.3379 45.042 60.2352 45.042ZM54.3832 39.904H57.3232C57.9299 39.904 58.4105 39.7173 58.7652 39.344C59.1292 38.9613 59.3112 38.4807 59.3112 37.902C59.3112 37.2953 59.1339 36.838 58.7792 36.53C58.4339 36.222 57.9859 36.068 57.4352 36.068H54.3832V39.904ZM61.8817 45V35.396H63.1557L64.9057 44.174H64.9757L66.7957 35.396H68.0417V45H67.3137V36.25H67.2437L65.4377 45H64.3597L62.5957 36.25H62.5257V45H61.8817ZM71.6483 35.396C72.0589 35.3587 72.4323 35.3913 72.7683 35.494C73.1136 35.5873 73.3889 35.7553 73.5943 35.998C73.8089 36.2313 73.9163 36.5533 73.9163 36.964V39.974C73.9163 40.254 74.0283 40.4593 74.2523 40.59C74.4856 40.7113 74.7329 40.7673 74.9943 40.758V41.864C74.7423 41.8547 74.4996 41.9153 74.2663 42.046C74.0329 42.1673 73.9163 42.3727 73.9163 42.662V45.658C73.9163 46.0593 73.8089 46.3813 73.5943 46.624C73.3889 46.8667 73.1136 47.0347 72.7683 47.128C72.4323 47.2213 72.0589 47.254 71.6483 47.226V46.554C71.7789 46.554 71.9283 46.5353 72.0963 46.498C72.2643 46.4607 72.4089 46.386 72.5303 46.274C72.6609 46.1713 72.7309 46.0173 72.7403 45.812L72.8522 42.816C72.8709 42.3587 72.9643 42.004 73.1323 41.752C73.3096 41.5 73.6316 41.374 74.0983 41.374V41.248C73.6316 41.248 73.3096 41.122 73.1323 40.87C72.9643 40.618 72.8709 40.2633 72.8522 39.806L72.7403 36.81C72.7309 36.6047 72.6609 36.4507 72.5303 36.348C72.4089 36.236 72.2643 36.1613 72.0963 36.124C71.9283 36.0867 71.7789 36.068 71.6483 36.068V35.396Z" fill="black"/>
</svg>
