<svg width="80" height="80" viewBox="0 0 80 80" fill="none" xmlns="http://www.w3.org/2000/svg">
<path d="M42.952 60V45.624H37.84V43.536H50.56V45.624H45.448V60H42.952ZM58.5906 60.24C57.7586 60.24 56.9586 60.152 56.1906 59.976C55.4386 59.8 54.7746 59.52 54.1986 59.136C53.6226 58.736 53.1666 58.224 52.8306 57.6C52.4946 56.976 52.3266 56.216 52.3266 55.32C52.3266 55.256 52.3266 55.184 52.3266 55.104C52.3266 55.008 52.3346 54.92 52.3506 54.84H54.7266C54.7106 54.936 54.7026 55.024 54.7026 55.104C54.7026 55.184 54.7026 55.272 54.7026 55.368C54.7026 56.024 54.8626 56.56 55.1826 56.976C55.5026 57.392 55.9506 57.696 56.5266 57.888C57.1026 58.08 57.7746 58.176 58.5426 58.176C59.3106 58.176 59.9746 58.096 60.5346 57.936C61.0946 57.76 61.5266 57.472 61.8306 57.072C62.1506 56.672 62.3106 56.144 62.3106 55.488C62.3106 54.896 62.1346 54.424 61.7826 54.072C61.4306 53.72 60.9666 53.44 60.3906 53.232C59.8306 53.008 59.2066 52.808 58.5186 52.632C57.8466 52.456 57.1666 52.264 56.4786 52.056C55.8066 51.848 55.1826 51.576 54.6066 51.24C54.0466 50.904 53.5906 50.456 53.2386 49.896C52.8866 49.32 52.7106 48.592 52.7106 47.712C52.7106 46.704 52.9826 45.872 53.5266 45.216C54.0706 44.56 54.7906 44.08 55.6866 43.776C56.5826 43.456 57.5666 43.296 58.6386 43.296C59.7106 43.296 60.6866 43.456 61.5666 43.776C62.4466 44.08 63.1426 44.568 63.6546 45.24C64.1826 45.896 64.4466 46.768 64.4466 47.856V48.168H62.1186V47.784C62.1186 47.24 61.9666 46.784 61.6626 46.416C61.3746 46.032 60.9666 45.744 60.4386 45.552C59.9266 45.36 59.3266 45.264 58.6386 45.264C57.9986 45.264 57.4226 45.344 56.9106 45.504C56.3986 45.664 55.9906 45.912 55.6866 46.248C55.3986 46.584 55.2546 47.024 55.2546 47.568C55.2546 48.128 55.4226 48.576 55.7586 48.912C56.1106 49.248 56.5666 49.52 57.1266 49.728C57.7026 49.92 58.3346 50.096 59.0226 50.256C59.7106 50.416 60.3906 50.6 61.0626 50.808C61.7506 51.016 62.3746 51.288 62.9346 51.624C63.5106 51.96 63.9746 52.416 64.3266 52.992C64.6946 53.552 64.8786 54.272 64.8786 55.152C64.8786 56.384 64.5986 57.376 64.0386 58.128C63.4946 58.864 62.7426 59.4 61.7826 59.736C60.8386 60.072 59.7746 60.24 58.5906 60.24Z" fill="black"/>
<mask id="path-2-inside-1_22_121" fill="white">
<path d="M0 0H80V80H0V0Z"/>
</mask>
<path d="M0 0V-2H-1V0H0ZM80 0H82V-2H80V0ZM80 80V81H82V80H80ZM0 80H-1V81H0V80ZM0 2H80V-2H0V2ZM78 0V80H82V0H78ZM80 79H0V81H80V79ZM1 80V0H-1V80H1Z" fill="black" mask="url(#path-2-inside-1_22_121)"/>
</svg>
